<svg height="532" preserveAspectRatio="xMidYMid meet" version="1.0"
     viewBox="0 0 409.5 398.999991" width="546" xmlns="http://www.w3.org/2000/svg" zoomAndPan="magnify">
    <defs>
        <clipPath id="8e2ad6fe08">
            <path clip-rule="nonzero"
                  d="M 191.246094 173.261719 L 217.480469 173.261719 L 217.480469 199.5 L 191.246094 199.5 Z M 191.246094 173.261719 "/>
        </clipPath>
        <clipPath id="d2dff408a9">
            <path clip-rule="nonzero"
                  d="M 204.363281 173.261719 C 197.117188 173.261719 191.246094 179.136719 191.246094 186.378906 C 191.246094 193.625 197.117188 199.5 204.363281 199.5 C 211.609375 199.5 217.480469 193.625 217.480469 186.378906 C 217.480469 179.136719 211.609375 173.261719 204.363281 173.261719 Z M 204.363281 173.261719 "/>
        </clipPath>
        <clipPath id="f8ce897f56">
            <path clip-rule="nonzero" d="M 0 0.242188 L 409 0.242188 L 409 398.753906 L 0 398.753906 Z M 0 0.242188 "/>
        </clipPath>
    </defs>
    <g clip-path="url(#8e2ad6fe08)">
        <g clip-path="url(#d2dff408a9)">
            <path d="M 191.246094 173.261719 L 217.480469 173.261719 L 217.480469 199.5 L 191.246094 199.5 Z M 191.246094 173.261719 "
                  fill="#f"
                  fill-opacity="1" fill-rule="nonzero"/>
        </g>
    </g>
    <g clip-path="url(#f8ce897f56)">
        <path d="M 108.015625 191.921875 C 108.015625 191.921875 119.078125 190.753906 132.335938 193.515625 C 157.128906 198.675781 174.628906 220.960938 174.628906 246.285156 L 174.628906 314.933594 L 164.414062 233.222656 C 164.414062 233.222656 119.5625 232.777344 108.015625 191.921875 Z M 234.136719 246.304688 C 234.136719 220.414062 252.46875 198.027344 277.910156 193.21875 C 290.503906 190.839844 300.75 191.921875 300.75 191.921875 C 289.203125 232.777344 244.347656 233.222656 244.347656 233.222656 L 234.136719 314.933594 Z M 29.414062 316.410156 C 133.328125 299.535156 178.328125 381.542969 178.328125 381.542969 L 204.382812 398.71875 L 230.4375 381.542969 C 230.4375 381.542969 275.433594 299.535156 379.351562 316.410156 C 379.351562 316.410156 363.367188 293.320312 338.496094 279.109375 C 338.496094 279.109375 372.246094 269.335938 408.660156 266.675781 C 408.660156 266.675781 302.082031 97.925781 335.828125 0.222656 C 335.828125 0.222656 257.671875 50.554688 220.371094 127.527344 C 220.371094 127.527344 213.265625 125.605469 204.382812 125.753906 C 195.5 125.605469 188.394531 127.527344 188.394531 127.527344 C 151.09375 50.554688 72.933594 0.222656 72.933594 0.222656 C 106.6875 97.925781 0.105469 266.675781 0.105469 266.675781 C 36.519531 269.335938 70.269531 279.109375 70.269531 279.109375 C 45.402344 293.320312 29.414062 316.410156 29.414062 316.410156 "
              fill="#ff1fc7"
              fill-opacity="1" fill-rule="nonzero"/>
    </g>
</svg>